<svg width="28" height="28" viewBox="0 0 28 28" fill="none" xmlns="http://www.w3.org/2000/svg">
<path d="M23.3337 15.1667C23.3337 21 19.2503 23.9167 14.397 25.6083C14.1428 25.6945 13.8668 25.6903 13.6153 25.5967C8.75033 23.9167 4.66699 21 4.66699 15.1667V7.00002C4.66699 6.6906 4.78991 6.39385 5.0087 6.17506C5.22749 5.95627 5.52424 5.83335 5.83366 5.83335C8.16699 5.83335 11.0837 4.43335 13.1137 2.66002C13.3608 2.44885 13.6752 2.33282 14.0003 2.33282C14.3254 2.33282 14.6398 2.44885 14.887 2.66002C16.9287 4.44502 19.8337 5.83335 22.167 5.83335C22.4764 5.83335 22.7732 5.95627 22.992 6.17506C23.2107 6.39385 23.3337 6.6906 23.3337 7.00002V15.1667Z" stroke="white" stroke-width="2.33333" stroke-linecap="round" stroke-linejoin="round"/>
</svg>
