<svg width="189" height="32" viewBox="0 0 189 32" fill="none" xmlns="http://www.w3.org/2000/svg">
<path d="M17.7832 13.7773C16.3105 13.7774 15.1162 14.9716 15.1162 16.4443C15.1162 17.8251 16.166 18.9611 17.5107 19.0977L17.7832 19.1113V32H14.2275V20.4443L4.29785 30.3486L1.7832 27.834L11.8398 17.7773H0.00585938V14.2227H11.8398L1.7832 4.29199L4.29785 1.77734L14.2275 11.7773V0H17.7832V13.7773Z" fill="black"/>
<circle cx="29.3366" cy="16" r="2.66667" fill="black"/>
<path d="M24.8926 4L19.5592 0V32L24.8926 29.5556V4Z" fill="black"/>
<path d="M49.0165 9.34762C48.6047 8.77884 48.0457 8.31794 47.3396 7.96491C46.6336 7.59226 45.8392 7.40594 44.9567 7.40594C44.486 7.40594 44.0054 7.47459 43.5151 7.61188C43.0444 7.72955 42.6129 7.93549 42.2207 8.22968C41.8284 8.50426 41.5048 8.8573 41.2498 9.28878C41.0145 9.70065 40.8968 10.2008 40.8968 10.7892C40.8968 11.3579 41.0047 11.8385 41.2204 12.2307C41.4558 12.6034 41.7598 12.927 42.1324 13.2016C42.5247 13.4565 42.9758 13.6821 43.4857 13.8782C44.0152 14.0547 44.5742 14.241 45.1626 14.4372C45.8687 14.6529 46.5845 14.8981 47.3102 15.1727C48.0359 15.4472 48.6929 15.8101 49.2813 16.2612C49.8697 16.7123 50.3502 17.281 50.7229 17.9675C51.0955 18.6343 51.2818 19.4875 51.2818 20.527C51.2818 21.6057 51.0759 22.5471 50.664 23.3512C50.2718 24.1357 49.7422 24.7928 49.0754 25.3223C48.4085 25.8323 47.6338 26.2147 46.7512 26.4697C45.8883 26.7247 44.9959 26.8521 44.0741 26.8521C42.76 26.8521 41.4852 26.5972 40.2496 26.0872C39.0336 25.5773 38.0235 24.8222 37.2194 23.8219L39.4847 21.9097C39.975 22.6354 40.632 23.2237 41.4558 23.6748C42.2795 24.1259 43.1719 24.3515 44.1329 24.3515C44.6232 24.3515 45.1136 24.2828 45.6039 24.1456C46.0942 24.0083 46.5355 23.7925 46.9278 23.4983C47.3396 23.2041 47.6731 22.8413 47.928 22.4098C48.183 21.9587 48.3105 21.4194 48.3105 20.7917C48.3105 20.1641 48.1732 19.6444 47.8986 19.2325C47.6436 18.801 47.2906 18.4382 46.8395 18.144C46.3884 17.8498 45.8589 17.6047 45.2509 17.4085C44.6625 17.1928 44.0349 16.977 43.368 16.7613C42.7012 16.5652 42.0441 16.3298 41.3969 16.0552C40.7497 15.761 40.1711 15.3982 39.6612 14.9667C39.1512 14.5156 38.7394 13.9665 38.4256 13.3192C38.1118 12.672 37.9549 11.8679 37.9549 10.9068C37.9549 9.86736 38.1608 8.97497 38.5727 8.22968C39.0041 7.48439 39.5533 6.86659 40.2201 6.37626C40.9066 5.88594 41.6715 5.53291 42.5149 5.31717C43.3778 5.08181 44.2408 4.96414 45.1038 4.96414C46.3198 4.96414 47.4573 5.17988 48.5164 5.61136C49.5755 6.04284 50.4287 6.62142 51.0759 7.3471L49.0165 9.34762ZM63.541 26.3226C63.5018 25.9696 63.4724 25.5773 63.4527 25.1458C63.4331 24.6947 63.4233 24.3221 63.4233 24.0279H63.3645C63.0115 24.7732 62.4133 25.4106 61.5699 25.9401C60.7462 26.4501 59.8244 26.705 58.8045 26.705C57.9023 26.705 57.1178 26.5579 56.4509 26.2637C55.8037 25.9696 55.2644 25.5675 54.8329 25.0576C54.421 24.528 54.1072 23.92 53.8915 23.2336C53.6953 22.5471 53.5973 21.8116 53.5973 21.0271V12.3778H56.3627V20.0857C56.3627 20.6545 56.4019 21.2036 56.4804 21.7332C56.5784 22.2431 56.7451 22.6942 56.9805 23.0865C57.2158 23.4787 57.5395 23.7925 57.9513 24.0279C58.3632 24.2632 58.8927 24.3809 59.54 24.3809C60.6579 24.3809 61.5601 23.969 62.2465 23.1453C62.933 22.3019 63.2762 21.184 63.2762 19.7915V12.3778H66.0416V23.3218C66.0416 23.6945 66.0515 24.175 66.0711 24.7634C66.0907 25.3517 66.1201 25.8715 66.1593 26.3226H63.541ZM71.7902 12.3778C71.8294 12.7308 71.8588 13.1329 71.8784 13.584C71.898 14.0155 71.9079 14.3783 71.9079 14.6725H71.9961C72.1726 14.2999 72.408 13.9567 72.7022 13.6428C73.016 13.3094 73.369 13.025 73.7613 12.7897C74.1535 12.5347 74.585 12.3386 75.0557 12.2013C75.5264 12.064 76.0168 11.9954 76.5267 11.9954C77.4289 11.9954 78.2036 12.1523 78.8508 12.4661C79.498 12.7603 80.0374 13.1623 80.4689 13.6723C80.9004 14.1822 81.2142 14.7804 81.4103 15.4668C81.626 16.1533 81.7339 16.8888 81.7339 17.6733V26.3226H78.9685V18.5853C78.9685 18.0165 78.9195 17.4772 78.8214 16.9672C78.743 16.4573 78.586 16.0062 78.3507 15.6139C78.1153 15.2217 77.7917 14.9079 77.3799 14.6725C76.968 14.4372 76.4384 14.3195 75.7912 14.3195C74.6929 14.3195 73.7907 14.7412 73.0846 15.5845C72.3982 16.4083 72.055 17.5164 72.055 18.9089V26.3226H69.2895V15.3786C69.2895 15.0059 69.2797 14.5254 69.2601 13.937C69.2405 13.3487 69.2111 12.8289 69.1719 12.3778H71.7902ZM102.869 23.0865C102.045 24.2044 100.976 25.1164 99.6621 25.8225C98.348 26.5089 96.7692 26.8521 94.9255 26.8521C93.3369 26.8521 91.8659 26.5874 90.5126 26.0578C89.179 25.5087 88.0218 24.7536 87.0412 23.7925C86.0801 22.8119 85.325 21.6547 84.7759 20.321C84.2267 18.9677 83.9521 17.487 83.9521 15.8787C83.9521 14.2508 84.2267 12.7701 84.7759 11.4364C85.3446 10.0831 86.1194 8.93575 87.1 7.99433C88.1003 7.0333 89.277 6.288 90.6303 5.75846C91.9836 5.22891 93.4546 4.96414 95.0432 4.96414C95.7493 4.96414 96.4652 5.03278 97.1908 5.17007C97.9165 5.30736 98.6128 5.5133 99.2796 5.78788C99.9464 6.06246 100.554 6.40568 101.104 6.81755C101.653 7.20981 102.123 7.67072 102.516 8.20026L100.221 9.96542C99.7111 9.25936 98.9854 8.68078 98.044 8.22968C97.1222 7.75897 96.1219 7.52362 95.0432 7.52362C93.8272 7.52362 92.7289 7.74917 91.7483 8.20026C90.7872 8.63175 89.9635 9.22994 89.277 9.99484C88.5906 10.7597 88.061 11.6521 87.6884 12.672C87.3157 13.6723 87.1294 14.7412 87.1294 15.8787C87.1294 17.0555 87.3059 18.1538 87.659 19.1737C88.0316 20.1936 88.5514 21.0859 89.2182 21.8508C89.9046 22.5961 90.7284 23.1845 91.6894 23.616C92.6701 24.0475 93.7586 24.2632 94.955 24.2632C96.1317 24.2632 97.2006 24.0279 98.1617 23.5572C99.1227 23.0865 99.917 22.4 100.545 21.4978L102.869 23.0865ZM113.971 26.3226C113.932 25.9696 113.902 25.5773 113.883 25.1458C113.863 24.6947 113.853 24.3221 113.853 24.0279H113.794C113.441 24.7732 112.843 25.4106 112 25.9401C111.176 26.4501 110.254 26.705 109.234 26.705C108.332 26.705 107.548 26.5579 106.881 26.2637C106.234 25.9696 105.694 25.5675 105.263 25.0576C104.851 24.528 104.537 23.92 104.321 23.2336C104.125 22.5471 104.027 21.8116 104.027 21.0271V12.3778H106.793V20.0857C106.793 20.6545 106.832 21.2036 106.91 21.7332C107.008 22.2431 107.175 22.6942 107.41 23.0865C107.646 23.4787 107.969 23.7925 108.381 24.0279C108.793 24.2632 109.323 24.3809 109.97 24.3809C111.088 24.3809 111.99 23.969 112.676 23.1453C113.363 22.3019 113.706 21.184 113.706 19.7915V12.3778H116.472V23.3218C116.472 23.6945 116.481 24.175 116.501 24.7634C116.521 25.3517 116.55 25.8715 116.589 26.3226H113.971ZM122.455 24.1161V26.3226H119.778V4.08155H122.544V14.4666H122.632C123.103 13.7801 123.76 13.2016 124.603 12.7308C125.446 12.2405 126.447 11.9954 127.604 11.9954C128.643 11.9954 129.585 12.1817 130.428 12.5543C131.291 12.927 132.027 13.4467 132.635 14.1136C133.262 14.7804 133.743 15.5649 134.076 16.4671C134.41 17.3497 134.576 18.3009 134.576 19.3208C134.576 20.3407 134.41 21.3017 134.076 22.2039C133.743 23.1061 133.272 23.8906 132.664 24.5574C132.056 25.2243 131.321 25.7538 130.458 26.1461C129.595 26.5187 128.624 26.705 127.545 26.705C126.545 26.705 125.594 26.4893 124.691 26.0578C123.789 25.6067 123.063 24.9595 122.514 24.1161H122.455ZM131.723 19.3208C131.723 18.6736 131.625 18.0459 131.428 17.4379C131.232 16.8299 130.938 16.2906 130.546 15.8199C130.154 15.3492 129.663 14.9765 129.075 14.7019C128.506 14.4274 127.839 14.2901 127.074 14.2901C126.368 14.2901 125.721 14.4274 125.133 14.7019C124.564 14.9765 124.074 15.3492 123.662 15.8199C123.25 16.2906 122.926 16.8299 122.691 17.4379C122.475 18.0459 122.367 18.6834 122.367 19.3502C122.367 20.017 122.475 20.6545 122.691 21.2625C122.926 21.8705 123.25 22.4098 123.662 22.8805C124.074 23.3316 124.564 23.6945 125.133 23.969C125.721 24.2436 126.368 24.3809 127.074 24.3809C127.839 24.3809 128.506 24.2436 129.075 23.969C129.663 23.6748 130.154 23.2924 130.546 22.8217C130.938 22.351 131.232 21.8116 131.428 21.2036C131.625 20.5956 131.723 19.968 131.723 19.3208ZM139.669 26.3226H136.904V12.3778H139.669V26.3226ZM140.14 7.3471C140.14 7.85704 139.953 8.27872 139.581 8.61213C139.228 8.94555 138.796 9.11226 138.286 9.11226C137.776 9.11226 137.345 8.94555 136.992 8.61213C136.639 8.2591 136.462 7.83743 136.462 7.3471C136.462 6.83717 136.639 6.41549 136.992 6.08207C137.345 5.72904 137.776 5.55252 138.286 5.55252C138.796 5.55252 139.228 5.72904 139.581 6.08207C139.953 6.41549 140.14 6.83717 140.14 7.3471ZM152.706 15.9081C152.412 15.457 151.971 15.0844 151.383 14.7902C150.794 14.4764 150.167 14.3195 149.5 14.3195C148.774 14.3195 148.127 14.4568 147.558 14.7314C147.009 15.0059 146.538 15.3786 146.146 15.8493C145.754 16.3004 145.45 16.8299 145.234 17.4379C145.038 18.0459 144.94 18.6834 144.94 19.3502C144.94 20.017 145.038 20.6545 145.234 21.2625C145.45 21.8705 145.754 22.4098 146.146 22.8805C146.538 23.3316 147.019 23.6945 147.587 23.969C148.156 24.2436 148.803 24.3809 149.529 24.3809C150.235 24.3809 150.873 24.2436 151.441 23.969C152.03 23.6945 152.51 23.3218 152.883 22.8511L154.736 24.528C154.148 25.2145 153.413 25.7538 152.53 26.1461C151.647 26.5187 150.647 26.705 149.529 26.705C148.45 26.705 147.45 26.5285 146.528 26.1755C145.626 25.8225 144.842 25.3321 144.175 24.7045C143.508 24.0573 142.978 23.2826 142.586 22.3804C142.214 21.4782 142.027 20.4681 142.027 19.3502C142.027 18.2519 142.214 17.2516 142.586 16.3494C142.959 15.4472 143.479 14.6725 144.145 14.0253C144.812 13.3781 145.597 12.8779 146.499 12.5249C147.421 12.1719 148.411 11.9954 149.47 11.9954C150.451 11.9954 151.422 12.1915 152.383 12.5837C153.363 12.976 154.138 13.5448 154.707 14.2901L152.706 15.9081ZM158.752 26.3226H155.987V4.08155H158.752V26.3226ZM172.23 18.1146C172.211 17.5654 172.113 17.0555 171.936 16.5848C171.779 16.0945 171.534 15.6728 171.201 15.3197C170.887 14.9667 170.485 14.6921 169.995 14.496C169.524 14.2803 168.965 14.1724 168.318 14.1724C167.729 14.1724 167.17 14.2803 166.641 14.496C166.131 14.6921 165.68 14.9667 165.287 15.3197C164.915 15.6728 164.601 16.0945 164.346 16.5848C164.111 17.0555 163.973 17.5654 163.934 18.1146H172.23ZM175.025 19.2325C175.025 19.3894 175.025 19.5463 175.025 19.7032C175.025 19.8601 175.015 20.017 174.996 20.1739H163.934C163.954 20.7623 164.081 21.3213 164.317 21.8508C164.572 22.3608 164.905 22.8119 165.317 23.2041C165.729 23.5768 166.199 23.871 166.729 24.0867C167.278 24.3025 167.857 24.4103 168.465 24.4103C169.406 24.4103 170.22 24.2044 170.907 23.7925C171.593 23.3807 172.132 22.8805 172.525 22.2921L174.466 23.8514C173.721 24.832 172.838 25.5577 171.819 26.0284C170.818 26.4795 169.7 26.705 168.465 26.705C167.406 26.705 166.425 26.5285 165.523 26.1755C164.621 25.8225 163.846 25.3321 163.199 24.7045C162.551 24.0573 162.042 23.2826 161.669 22.3804C161.296 21.4782 161.11 20.4779 161.11 19.3796C161.11 18.3009 161.286 17.3105 161.639 16.4083C162.012 15.4865 162.522 14.7019 163.169 14.0547C163.816 13.4075 164.581 12.9074 165.464 12.5543C166.347 12.1817 167.298 11.9954 168.318 11.9954C169.338 11.9954 170.259 12.1621 171.083 12.4955C171.926 12.8289 172.632 13.3094 173.201 13.937C173.79 14.5647 174.241 15.3296 174.555 16.2317C174.868 17.1143 175.025 18.1146 175.025 19.2325ZM184.869 15.9081C184.555 15.3982 184.114 14.9863 183.545 14.6725C182.977 14.3391 182.339 14.1724 181.633 14.1724C181.319 14.1724 181.006 14.2116 180.692 14.2901C180.378 14.3489 180.094 14.4568 179.839 14.6137C179.603 14.751 179.407 14.9373 179.25 15.1727C179.113 15.3884 179.044 15.663 179.044 15.9964C179.044 16.5848 179.309 17.0261 179.839 17.3203C180.368 17.5948 181.162 17.8498 182.222 18.0852C182.888 18.2421 183.506 18.4284 184.075 18.6441C184.644 18.8599 185.134 19.1345 185.546 19.4679C185.977 19.7817 186.311 20.1641 186.546 20.6152C186.782 21.0663 186.899 21.5959 186.899 22.2039C186.899 23.0276 186.742 23.7239 186.428 24.2927C186.115 24.8614 185.693 25.3321 185.163 25.7048C184.654 26.0578 184.065 26.3128 183.398 26.4697C182.731 26.6266 182.045 26.705 181.339 26.705C180.28 26.705 179.24 26.4991 178.22 26.0872C177.22 25.6754 176.387 25.0477 175.72 24.2044L177.691 22.5275C178.064 23.0767 178.574 23.5376 179.221 23.9102C179.888 24.2828 180.613 24.4692 181.398 24.4692C181.751 24.4692 182.084 24.4397 182.398 24.3809C182.731 24.3025 183.026 24.1848 183.281 24.0279C183.555 23.871 183.771 23.665 183.928 23.4101C184.085 23.1551 184.163 22.8315 184.163 22.4392C184.163 21.792 183.849 21.3115 183.222 20.9977C182.614 20.6839 181.712 20.3897 180.515 20.1151C180.044 19.9974 179.564 19.8601 179.074 19.7032C178.603 19.5267 178.171 19.2914 177.779 18.9972C177.387 18.703 177.063 18.3401 176.808 17.9087C176.573 17.4576 176.455 16.9084 176.455 16.2612C176.455 15.5159 176.602 14.8785 176.897 14.3489C177.21 13.7997 177.612 13.3585 178.103 13.025C178.593 12.672 179.152 12.417 179.78 12.2601C180.407 12.0836 181.055 11.9954 181.721 11.9954C182.722 11.9954 183.683 12.1915 184.604 12.5837C185.546 12.976 186.272 13.5448 186.782 14.2901L184.869 15.9081Z" fill="black"/>
</svg>
